<?xml version="1.0" encoding="UTF-8"?>
<svg width="16px" height="16px" viewBox="0 0 16 16" version="1.1" xmlns="http://www.w3.org/2000/svg" xmlns:xlink="http://www.w3.org/1999/xlink">
    <title>collapse-all</title>
    <g id="collapse-all" stroke="none" stroke-width="1" fill="none" fill-rule="evenodd">
        <g id="minus.collapse.all" transform="translate(1, 2)" fill="#000000">
            <path d="M3.5026163,12.9875 L10.497335,12.9875 C11.1072137,12.9875 11.4734111,12.63572 11.5,12.0125 L2.5,12.0125 C2.5265281,12.63572 2.89268895,12.9875 3.5026163,12.9875 Z" id="Path" fill-rule="nonzero"></path>
            <path d="M2.72541993,10.9875 L11.2745206,10.9875 C12.0199279,10.9875 12.4675024,10.63572 12.5,10.0125 L1.5,10.0125 C1.53242324,10.63572 1.97995316,10.9875 2.72541993,10.9875 Z" id="Path" fill-rule="nonzero"></path>
            <path d="M11.9016151,0 C13.2982574,0 14,0.650547283 14,1.93911942 L14,7.06088058 C14,8.34946339 13.2982574,9 11.9016151,9 L2.09831761,9 C0.701663916,9 0,8.3557086 0,7.06088058 L0,1.93911942 C0,0.644291404 0.701663916,0 2.09831761,0 L11.9016151,0 Z M11.9509351,1 L2.05583385,1 C1.37901254,1 1,1.33838515 1,1.98380984 L1,7.01619016 C1,7.66161485 1.37901254,8 2.05583385,8 L11.9509351,8 C12.6141955,8 13,7.66161485 13,7.01619016 L13,1.98380984 C13,1.33838515 12.6141955,1 11.9509351,1 Z" id="Shape" fill-rule="nonzero"></path>
            <rect id="Rectangle" x="4" y="4" width="6" height="1" rx="0.5"></rect>
        </g>
    </g>
</svg>