<?xml version="1.0" encoding="UTF-8"?>
<svg width="16px" height="16px" viewBox="0 0 16 16" version="1.1" xmlns="http://www.w3.org/2000/svg" xmlns:xlink="http://www.w3.org/1999/xlink">
    <title>expand-all</title>
    <g id="expand-all" stroke="none" stroke-width="1" fill="none" fill-rule="evenodd">
        <g id="arrow.down.left.and.arrow.up.right.square" transform="translate(1.9863, 2)" fill="#000000" fill-rule="nonzero">
            <path d="M1.98242187,11.9521484 L10.0244141,12 C10.6852214,12 11.1796875,11.8359375 11.5078125,11.5078125 C11.8359375,11.1796875 12,10.6920573 12,10.0449219 L12.0136719,2.00292969 C12.0136719,1.35579427 11.8496094,0.868164063 11.5214844,0.540039063 C11.1933594,0.211914063 10.6988932,0.0478515625 10.0380859,0.0478515625 L1.99609375,0 C1.33528646,0 0.83968099,0.162923177 0.509277344,0.488769531 C0.178873698,0.814615885 0.013671875,1.30338542 0.013671875,1.95507812 L0,9.99707031 C0,10.648763 0.165201823,11.1375326 0.495605469,11.4633789 C0.826009115,11.7892253 1.32161458,11.9521484 1.98242187,11.9521484 Z M1.99609375,11.0087891 C1.65885417,11.0087891 1.40022786,10.9199219 1.22021484,10.7421875 C1.04020182,10.5644531 0.950195312,10.3001302 0.950195312,9.94921875 L0.963867187,2.00292969 C0.963867187,1.65201823 1.0538737,1.38769531 1.23388672,1.20996094 C1.41389974,1.03222656 1.67252604,0.943359375 2.00976562,0.943359375 L10.0244141,0.991210938 C10.3570964,0.991210938 10.6145833,1.08007813 10.796875,1.2578125 C10.9791667,1.43554688 11.0703125,1.69986979 11.0703125,2.05078125 L11.0566406,9.99707031 C11.0566406,10.3479818 10.9654948,10.6123047 10.7832031,10.7900391 C10.6009115,10.9677734 10.3434245,11.0566406 10.0107422,11.0566406 L1.99609375,11.0087891 Z M5.33085548,10.0040752 L2.60841944,10.0040752 C2.21192106,10.0040752 2.01367188,9.80582598 2.01367188,9.4093276 L2.01367188,6.67851483 C2.01367188,6.53890272 2.06393223,6.41883631 2.16445295,6.3183156 C2.26497366,6.21779488 2.38504007,6.16753453 2.52465218,6.16753453 C2.66426428,6.16753453 2.78293457,6.21779488 2.88066305,6.3183156 C2.97839152,6.41883631 3.02725576,6.53890272 3.02725576,6.67851483 L3.02725576,7.09735114 L2.96024195,8.38736699 L5.09630715,6.16753453 C5.20241235,6.05584484 5.33085548,6 5.48163656,6 C5.63241763,6 5.76086077,6.0530526 5.86696597,6.1591578 C5.96748668,6.265263 6.01635092,6.39370614 6.01355868,6.54448721 C6.01076643,6.69526828 5.95910996,6.82371142 5.85858924,6.92981662 L3.65551023,9.04912837 L4.88688899,8.98211456 L5.33085548,8.98211456 C5.47046759,8.98211456 5.590534,9.03237492 5.69105471,9.13289563 C5.79157543,9.23341635 5.84183579,9.35069051 5.84183579,9.48471813 C5.84183579,9.62991472 5.79157543,9.75277338 5.69105471,9.85329409 C5.590534,9.95381481 5.47046759,10.0040752 5.33085548,10.0040752 Z M9.50375868,5.82364575 C9.35886532,5.82364575 9.23765644,5.77349035 9.14013206,5.67317956 C9.04260768,5.57286877 8.99384549,5.4530531 8.99384549,5.31373256 L8.99384549,4.89577092 L9.06071935,3.60844909 L6.92911502,5.82364575 C6.82880423,5.93510218 6.70341574,5.9908304 6.55294955,5.9908304 C6.40248336,5.9908304 6.27430846,5.93788859 6.16842485,5.83200498 C6.06254124,5.72612137 6.01099263,5.59794647 6.01377904,5.44748028 C6.01656546,5.29701409 6.07090047,5.16883919 6.17678408,5.06295558 L8.37526227,2.94806971 L7.13809584,3.01494357 L6.70341574,3.01494357 C6.5640952,3.01494357 6.44427953,2.96478818 6.34396873,2.86447738 C6.24365794,2.76416659 6.19350255,2.64713734 6.19350255,2.51338961 C6.19350255,2.36849625 6.24365794,2.24589417 6.34396873,2.14558338 C6.44427953,2.04527258 6.5640952,1.99511719 6.70341574,1.99511719 L9.42016636,1.99511719 C9.8158367,1.99511719 10.0136719,2.19295236 10.0136719,2.58862271 L10.0136719,5.31373256 C10.0136719,5.4530531 9.96351648,5.57286877 9.86320569,5.67317956 C9.7628949,5.77349035 9.64307923,5.82364575 9.50375868,5.82364575 Z" id="Shape"></path>
        </g>
    </g>
</svg>