<?xml version="1.0" encoding="UTF-8"?>
<svg width="16px" height="16px" viewBox="0 0 16 16" version="1.1" xmlns="http://www.w3.org/2000/svg" xmlns:xlink="http://www.w3.org/1999/xlink">
    <title>files</title>
    <g id="files" stroke="none" stroke-width="1" fill="none" fill-rule="evenodd">
        <g id="doc.on.doc" transform="translate(1, 0)" fill="#000000" fill-rule="nonzero">
            <path d="M3,3.52958679 L4.00976563,3.52958679 L4.00976563,2.00004578 C4.00976563,1.66230774 4.09902445,1.40261332 4.27754211,1.22096252 C4.45605977,1.03931173 4.72130839,0.948486328 5.07328796,0.948486328 L8.98339844,0.948486328 L8.98339844,4.33932495 C8.98339844,4.70625814 9.07230123,4.9756368 9.25010681,5.14746094 C9.42791239,5.31928507 9.69458516,5.40519714 10.0501251,5.40519714 L13.0787659,5.40519714 L13.0787659,10.9417725 C13.0787659,11.2811483 12.9894892,11.5410919 12.810936,11.7216034 C12.6323827,11.9021149 12.3671519,11.9923706 12.0152435,11.9923706 L10.6903534,11.9923706 L10.6903534,13.0015259 L12.0649109,13.0015259 C12.7178853,13.0015259 13.2071711,12.8355764 13.5327682,12.5036774 C13.8583654,12.1717784 14.0211639,11.6776326 14.0211639,11.0212402 L14.0211639,5.67970276 C14.0211639,5.31882222 13.9787064,5.01140086 13.8937912,4.75743866 C13.808876,4.50347646 13.6509908,4.25907389 13.4201355,4.02423096 L10.0501251,0.601135254 C9.83123271,0.382242839 9.5948054,0.227330526 9.3408432,0.136398315 C9.086881,0.0454661051 8.80110677,0 8.48352051,0 L4.95635986,0 C4.30908203,0 3.8212026,0.165949504 3.49272156,0.497848511 C3.16424052,0.829747518 3,1.32389323 3,1.98028564 L3,3.52958679 Z M9.97592163,4.21008301 L9.97592163,1.86169434 L12.6849365,4.55166626 L10.3175049,4.55166626 C10.0897827,4.55166626 9.97592163,4.43780518 9.97592163,4.21008301 Z M0,14.0211334 C0,14.6775258 0.163552081,15.1716715 0.490656242,15.5035706 C0.817760404,15.8354696 1.30472296,16.0014191 1.95154392,16.0014191 L9.04845608,16.0014191 C9.69527704,16.0014191 10.1822396,15.8354696 10.5093438,15.5035706 C10.8364479,15.1716715 11,14.6775258 11,14.0211334 L11,8.9016571 C11,8.51008606 10.9641819,8.20513916 10.8925458,7.98681641 C10.8209096,7.76849365 10.6642654,7.53621419 10.4226132,7.28997803 L6.77950393,3.57881165 C6.54978517,3.34047953 6.3241863,3.1844279 6.1027073,3.11065674 C5.88122831,3.03688558 5.59851939,3 5.25458055,3 L1.95154392,3 C1.30585948,3 0.819181052,3.1659317 0.491508631,3.4977951 C0.16383621,3.82965851 0,4.32382202 0,4.98028564 L0,14.0211334 Z M1,13.958367 L1,5.03496672 C1,4.70433324 1.08792862,4.44918042 1.26378587,4.26950825 C1.43964312,4.08983608 1.69893962,4 2.04167537,4 L5.00994873,4 L5.00994873,7.76401555 C5.00994873,8.15468083 5.10692625,8.444717 5.30088129,8.63412405 C5.49483634,8.82353111 5.78071835,8.91823464 6.15852735,8.91823464 L10,8.91823464 L10,13.958367 C10,14.2951377 9.91108932,14.5529359 9.73326797,14.7317615 C9.55544662,14.9105872 9.29516808,15 8.95243233,15 L2.03578306,15 C1.69304731,15 1.43473287,14.9105872 1.26083972,14.7317615 C1.08694657,14.5529359 1,14.2951377 1,13.958367 Z M6.38516235,8.00070953 C6.24908447,8.00070953 6.15087128,7.97053528 6.09052277,7.91018677 C6.03017426,7.84983826 6,7.75190989 6,7.61640167 L6,4.37190247 L9.59033203,8.00070953 L6.38516235,8.00070953 Z" id="Shape"></path>
        </g>
    </g>
</svg>