<?xml version="1.0" encoding="UTF-8"?>
<svg width="16px" height="16px" viewBox="0 0 16 16" version="1.1" xmlns="http://www.w3.org/2000/svg" xmlns:xlink="http://www.w3.org/1999/xlink">
    <title>folder</title>
    <g id="folder" stroke="none" stroke-width="1" fill="none" fill-rule="evenodd">
        <path d="M15,12 C15,13.1045695 14.1045695,14 13,14 L3,14 C1.8954305,14 1,13.1045695 1,12 L1,4 C1,2.8954305 1.8954305,2 3,2 L5,2 C7,2 6.5,3 7.73239368,2.99992752 L12.6389534,2.99998727 C12.757372,2.99999136 12.8777208,2.99999561 13,3 C14.1045695,3 15,3.8954305 15,5 L15,12 Z M14,7 L2,7 L2,12 C2,12.5522847 2.44771525,13 3,13 L13,13 C13.5522847,13 14,12.5522847 14,12 L14,7 Z M5,3 L3,3 C2.44771525,3 2,3.44771525 2,4 L2,6 L14,6 L14,5 C14,4.44771525 13.5522847,4 12.9999884,4 L12.4455093,3.99996413 L8.15562632,3.99992085 C6.73929228,3.99996306 6.36278084,3.71553832 6.09226069,3.45006603 L5.99396008,3.35199493 C5.8,3.16 5.6,3 5,3 Z" fill="#000000" fill-rule="nonzero"></path>
    </g>
</svg>