<?xml version="1.0" encoding="UTF-8"?>
<svg width="16px" height="16px" viewBox="0 0 16 16" version="1.1" xmlns="http://www.w3.org/2000/svg" xmlns:xlink="http://www.w3.org/1999/xlink">
    <title>history</title>
    <g id="clock" stroke="none" stroke-width="1" fill="none" fill-rule="evenodd">
        <g id="clock.arrow.circlepath" transform="translate(0, 1)" fill="#000000" fill-rule="nonzero">
            <path d="M8.23357995,2.87389092 C8.05334335,2.87389092 7.89989867,2.93721729 7.77324593,3.06387004 C7.64659318,3.19052279 7.5832668,3.34396747 7.5832668,3.52420407 L7.5832668,7.43795668 C7.5832668,7.60845077 7.644462,7.77650922 7.7668524,7.94213205 L9.4392167,10.1469859 C9.57995043,10.3272225 9.73799997,10.4331724 9.91336531,10.4648356 C10.0887307,10.4964988 10.2613559,10.4563109 10.4312411,10.3442719 C10.5828591,10.2371042 10.6659749,10.0946199 10.6805887,9.91681889 C10.6952025,9.73901792 10.6416186,9.56517484 10.5198371,9.39528967 L8.11758309,6.14555063 L8.88389311,8.50476253 L8.88389311,3.52420407 C8.88389311,3.34396747 8.82056673,3.19052279 8.69391398,3.06387004 C8.56726124,2.93721729 8.41381656,2.87389092 8.23357995,2.87389092 Z M8.33541973,14 C9.2890449,14 10.188934,13.8163954 11.035087,13.4491861 C11.88124,13.0819769 12.6258387,12.5768501 13.268883,11.9338058 C13.9119273,11.2907615 14.4159695,10.5472284 14.7810095,9.70320655 C15.1460495,8.85918472 15.3285695,7.95796364 15.3285695,6.99954332 C15.3285695,6.04165579 15.1460495,5.14072014 14.7810095,4.29673636 C14.4159695,3.45275259 13.9119273,2.70817295 13.268883,2.06299746 C12.6258387,1.41782196 11.88124,0.912695177 11.035087,0.547617106 C10.188934,0.182539035 9.2890449,0 8.33541973,0 C7.37699941,0 6.47577833,0.182539035 5.63175649,0.547617106 C4.78773466,0.912695177 4.043136,1.41675637 3.3979605,2.05980069 C2.752785,2.70284501 2.24767725,3.44635906 1.88263724,4.29034284 C1.51759722,5.13432661 1.33507721,6.03526227 1.33507721,6.99314979 L2.39274945,6.99314979 C2.39274945,6.17180976 2.54663178,5.40205561 2.85439643,4.68388733 C3.16216109,3.96571905 3.58805379,3.33677475 4.13207454,2.79705441 C4.67609529,2.25733407 5.30610518,1.83463814 6.02210422,1.5289666 C6.73810327,1.22329506 7.50920843,1.07045929 8.33541973,1.07045929 C9.15675976,1.07045929 9.92651391,1.22329506 10.6446822,1.5289666 C11.3628505,1.83463814 11.9928794,2.25839966 12.534769,2.80025117 C13.0766585,3.34210269 13.5014856,3.97211258 13.8092503,4.69028086 C14.117015,5.40844913 14.2708973,6.17820329 14.2708973,6.99954332 C14.2708973,7.82088335 14.117015,8.5907707 13.8092503,9.30920538 C13.5014856,10.02764 13.0766585,10.6599333 12.534769,11.2060853 C11.9928794,11.7522372 11.3628505,12.1779777 10.6446822,12.4833067 C9.92651391,12.7886357 9.15675976,12.9391691 8.33541973,12.9349067 C7.6609025,12.9355156 7.02076952,12.8300605 6.41502078,12.6185412 C5.80927204,12.407022 5.25710716,12.1119683 4.75852613,11.7333801 C4.2599451,11.3547919 3.83346252,10.9101372 3.47907839,10.3994161 C3.3827949,10.2713933 3.26622718,10.1897236 3.12937523,10.154407 C2.99252328,10.1190903 2.86012397,10.1407446 2.73217729,10.2193698 C2.60476341,10.2943415 2.52750828,10.4075412 2.5004119,10.5589689 C2.47331551,10.7103966 2.51217142,10.8546886 2.61697962,10.991845 C3.05242455,11.5854536 3.56577159,12.1082768 4.15702072,12.5603145 C4.74826985,13.0123521 5.39612834,13.3653091 6.1005962,13.6191855 C6.80506406,13.8730618 7.55000523,14 8.33541973,14 Z M0.458478833,5.68955506 C0.305490837,5.68955506 0.190312188,5.72123728 0.112942885,5.78460171 C0.035573583,5.84796614 -0.00204548014,5.93068241 8.56959259e-05,6.03275052 C0.00221687199,6.13481863 0.0468573991,6.24552562 0.134007277,6.36487148 L1.6594346,8.54163948 C1.76850515,8.69272464 1.89127611,8.76826722 2.02774749,8.76826722 C2.16421887,8.76826722 2.28485866,8.69272464 2.38966685,8.54163948 L3.92148771,6.35847795 C4.00437523,6.24339444 4.04688458,6.13481863 4.04901576,6.03275052 C4.05114693,5.93068241 4.01352787,5.84796614 3.93615857,5.78460171 C3.85878927,5.72123728 3.74361062,5.68955506 3.59062262,5.68955506 L0.458478833,5.68955506 Z" id="Shape"></path>
        </g>
    </g>
</svg>
