<?xml version="1.0" encoding="UTF-8"?>
<svg width="16px" height="16px" viewBox="0 0 16 16" version="1.1" xmlns="http://www.w3.org/2000/svg" xmlns:xlink="http://www.w3.org/1999/xlink">
    <title>refresh</title>
    <g id="refresh" stroke="none" stroke-width="1" fill="none" fill-rule="evenodd">
        <g transform="translate(2.0728, 1.3111)" fill="#000000" fill-rule="nonzero" id="Path">
            <path d="M5.6464386,0.130623222 L7.61103821,1.52343786 C7.75762939,1.62652115 7.83006541,1.74749029 7.82834625,1.88634527 C7.8266271,2.02520025 7.75419108,2.14636775 7.61103821,2.24984777 L5.64068604,3.63641393 C5.46500142,3.76303645 5.30974833,3.79771713 5.17492676,3.74045599 C5.04010518,3.68319484 4.9726944,3.54450516 4.9726944,3.32438695 L4.9726944,2.46348608 C4.41991933,2.59758031 3.90970993,2.81437592 3.44206619,3.11387289 C2.97442245,3.41336985 2.56871796,3.78034373 2.2249527,4.21479452 C1.88118744,4.6492453 1.61367671,5.13285736 1.4224205,5.6656307 C1.2311643,6.19840403 1.13553619,6.76101466 1.13553619,7.35346258 C1.13553619,8.05461411 1.26508458,8.70916657 1.52418137,9.31711996 C1.78327815,9.92507335 2.14271418,10.4597973 2.60248947,10.9212917 C3.06226476,11.3827862 3.59698868,11.7440405 4.20666122,12.0050548 C4.81633377,12.2660691 5.47002665,12.3965763 6.16773987,12.3965763 C6.8688914,12.3965763 7.52440262,12.2660691 8.13427353,12.0050548 C8.74414444,11.7440405 9.27886836,11.3827862 9.73844528,10.9212917 C10.1980222,10.4597973 10.5583178,9.92507335 10.8193321,9.31711996 C11.0803464,8.70916657 11.2089361,8.05461411 11.205101,7.35346258 C11.205101,6.803134 11.1212756,6.27875809 10.9536247,5.78033483 C10.7859739,5.28191157 10.5510445,4.8253597 10.2488365,4.41067922 L10.0997373,4.21607302 L9.94232587,4.03002744 C9.84035558,3.93172536 9.77724609,3.79268858 9.77724609,3.6389118 C9.77724609,3.33515518 10.0234895,3.0889118 10.3272461,3.0889118 C10.4829214,3.0889118 10.6234904,3.15358916 10.723548,3.25753867 L10.7344018,3.24723568 C10.882539,3.4104206 11.0227431,3.58267928 11.155014,3.76401174 C11.5294596,4.27734538 11.8197327,4.83898071 12.0258331,5.44891775 C12.2319336,6.05885478 12.3349838,6.69370306 12.3349838,7.35346258 C12.3349838,8.19750249 12.1742096,8.99138931 11.8526611,9.73512304 C11.5311127,10.4788568 11.0860329,11.13493 10.5174217,11.7033428 C9.94881058,12.2717556 9.29272079,12.7167362 8.54915237,13.0382847 C7.80558395,13.3598331 7.01177979,13.5206074 6.16773987,13.5206074 C5.32330322,13.5206074 4.52931722,13.3598331 3.78578186,13.0382847 C3.0422465,12.7167362 2.38713201,12.2717556 1.82043839,11.7033428 C1.25374476,11.13493 0.808664958,10.4788568 0.485198975,9.73512304 C0.161732992,8.99138931 0,8.19750249 0,7.35346258 C0,6.6138945 0.125796,5.91067668 0.377388,5.2438091 C0.628980001,4.57694153 0.980117798,3.97346787 1.43080139,3.43338811 C1.88148499,2.89330836 2.40843964,2.43976502 3.01166534,2.07275808 C3.61489105,1.70575114 4.2685674,1.452721 4.9726944,1.31366766 L4.9726944,0.448402763 C4.9726944,0.223986666 5.04010518,0.083346407 5.17492676,0.0264819865 C5.30974833,-0.0303824341 5.46691895,0.00433131102 5.6464386,0.130623222 Z"></path>
        </g>
    </g>
</svg>