<?xml version="1.0" encoding="UTF-8"?>
<svg width="16px" height="16px" viewBox="0 0 16 16" version="1.1" xmlns="http://www.w3.org/2000/svg" xmlns:xlink="http://www.w3.org/1999/xlink">
    <title>refresh</title>
    <g id="refresh" stroke="none" stroke-width="1" fill="none" fill-rule="evenodd">
        <g transform="translate(2, 1.0065)" fill="#000000" fill-rule="nonzero" id="Path">
            <path d="M5.6761377,0.137179995 L7.6385577,1.53510999 C7.9333977,1.74849999 7.9306977,2.07298999 7.6385577,2.27783999 L5.6713277,3.67575999 C5.3100477,3.93485999 4.9786377,3.80982999 4.9786377,3.36322999 L4.9786377,2.52954999 C2.8692577,3.05454999 1.19706,4.94407999 1.19706,7.22326999 C1.19706,9.92033999 3.35542,12.08355 6.0525,12.08355 C8.74957,12.08355 10.9186,9.92033999 10.9138,7.22326999 C10.9116129,6.64080455 10.8086845,6.084766 10.620997,5.57071728 C10.5756623,5.48713228 10.55,5.39156301 10.55,5.28999999 C10.55,4.96415199 10.814152,4.69999999 11.14,4.69999999 C11.3872611,4.69999999 11.5989969,4.85210219 11.686746,5.06784534 C11.958622,5.74297999 12.106,6.47509503 12.106,7.22326999 C12.106,10.53815 9.36843,13.27575 6.0525,13.27575 C2.74242,13.27575 0,10.53815 0,7.22326999 C0,4.31935999 2.2269577,1.86662999 4.9786377,1.30225999 L4.9786377,0.448663995 C4.9786377,-0.0048502452 5.3121577,-0.125670005 5.6761377,0.137179995 Z"></path>
        </g>
    </g>
</svg>