<?xml version="1.0" encoding="UTF-8"?>
<svg width="16px" height="16px" viewBox="0 0 16 16" version="1.1" xmlns="http://www.w3.org/2000/svg" xmlns:xlink="http://www.w3.org/1999/xlink">
    <title>search</title>
    <g id="search" stroke="none" stroke-width="1" fill="none" fill-rule="evenodd">
        <g id="magnifyingglass" transform="translate(1, 0)" fill="#000000">
            <path d="M6,0 C9.3137085,0 12,2.6862915 12,6 C12,9.3137085 9.3137085,12 6,12 C2.6862915,12 0,9.3137085 0,6 C0,2.6862915 2.6862915,0 6,0 Z M6,1 C3.23857625,1 1,3.23857625 1,6 C1,8.76142375 3.23857625,11 6,11 C8.76142375,11 11,8.76142375 11,6 C11,3.23857625 8.76142375,1 6,1 Z" id="Combined-Shape"></path>
            <rect id="Rectangle" transform="translate(12.1822, 12.3168) rotate(-45) translate(-12.1822, -12.3168)" x="11.5071708" y="8.81681547" width="1.35" height="7" rx="0.675"></rect>
        </g>
    </g>
</svg>