<svg width="16px" height="16px" viewBox="0 0 16 16" version="1.1" xmlns:xlink="http://www.w3.org/1999/xlink" fill="currentColor"><path d="M1.98242187,11.9521484 L10.0244141,12 C10.6852214,12 11.1796875,11.8359375 11.5078125,11.5078125 C11.8359375,11.1796875 12,10.6920573 12,10.0449219 L12.0136719,2.00292969 C12.0136719,1.35579427 11.8496094,0.868164063 11.5214844,0.540039063 C11.1933594,0.211914063 10.6988932,0.0478515625 10.0380859,0.0478515625 L1.99609375,0 C1.33528646,0 0.83968099,0.162923177 0.509277344,0.488769531 C0.178873698,0.814615885 0.013671875,1.30338542 0.013671875,1.95507812 L0,9.99707031 C0,10.648763 0.165201823,11.1375326 0.495605469,11.4633789 C0.826009115,11.7892253 1.32161458,11.9521484 1.98242187,11.9521484 Z M1.99609375,11.0087891 C1.65885417,11.0087891 1.40022786,10.9199219 1.22021484,10.7421875 C1.04020182,10.5644531 0.950195312,10.3001302 0.950195312,9.94921875 L0.963867187,2.00292969 C0.963867187,1.65201823 1.0538737,1.38769531 1.23388672,1.20996094 C1.41389974,1.03222656 1.67252604,0.943359375 2.00976562,0.943359375 L10.0244141,0.991210938 C10.3570964,0.991210938 10.6145833,1.08007813 10.796875,1.2578125 C10.9791667,1.43554688 11.0703125,1.69986979 11.0703125,2.05078125 L11.0566406,9.99707031 C11.0566406,10.3479818 10.9654948,10.6123047 10.7832031,10.7900391 C10.6009115,10.9677734 10.3434245,11.0566406 10.0107422,11.0566406 L1.99609375,11.0087891 Z M6.52358507,9.82364575 C6.66847843,9.82364575 6.78968731,9.77349035 6.88721169,9.67317956 C6.98473607,9.57286877 7.03349826,9.4530531 7.03349826,9.31373256 L7.03349826,8.89577092 L6.9666244,7.60844909 L9.09822873,9.82364575 C9.19853952,9.93510218 9.32392801,9.9908304 9.4743942,9.9908304 C9.62486039,9.9908304 9.75303529,9.93788859 9.8589189,9.83200498 C9.96480251,9.72612137 10.0163511,9.59794647 10.0135647,9.44748028 C10.0107783,9.29701409 9.95644328,9.16883919 9.85055967,9.06295558 L7.65208148,6.94806971 L8.88924791,7.01494357 L9.32392801,7.01494357 C9.46324855,7.01494357 9.58306422,6.96478818 9.68337502,6.86447738 C9.78368581,6.76416659 9.8338412,6.64713734 9.8338412,6.51338961 C9.8338412,6.36849625 9.78368581,6.24589417 9.68337502,6.14558338 C9.58306422,6.04527258 9.46324855,5.99511719 9.32392801,5.99511719 L6.60717739,5.99511719 C6.21150705,5.99511719 6.01367188,6.19295236 6.01367188,6.58862271 L6.01367188,9.31373256 C6.01367188,9.4530531 6.06382727,9.57286877 6.16413806,9.67317956 C6.26444885,9.77349035 6.38426452,9.82364575 6.52358507,9.82364575 Z M2.69648827,6.00407516 L5.41892431,6.00407516 C5.81542269,6.00407516 6.01367188,5.80582598 6.01367188,5.4093276 L6.01367188,2.67851483 C6.01367188,2.53890272 5.96341152,2.41883631 5.8628908,2.3183156 C5.76237009,2.21779488 5.64230368,2.16753453 5.50269157,2.16753453 C5.36307947,2.16753453 5.24440918,2.21779488 5.1466807,2.3183156 C5.04895223,2.41883631 5.00008799,2.53890272 5.00008799,2.67851483 L5.00008799,3.09735114 L5.0671018,4.38736699 L2.9310366,2.16753453 C2.8249314,2.05584484 2.69648827,2 2.54570719,2 C2.39492612,2 2.26648298,2.0530526 2.16037778,2.1591578 C2.05985707,2.265263 2.01099283,2.39370614 2.01378507,2.54448721 C2.01657732,2.69526828 2.06823379,2.82371142 2.16875451,2.92981662 L4.37183352,5.04912837 L3.14045476,4.98211456 L2.69648827,4.98211456 C2.55687616,4.98211456 2.43680975,5.03237492 2.33628904,5.13289563 C2.23576832,5.23341635 2.18550796,5.35069051 2.18550796,5.48471813 C2.18550796,5.62991472 2.23576832,5.75277338 2.33628904,5.85329409 C2.43680975,5.95381481 2.55687616,6.00407516 2.69648827,6.00407516 Z" transform="translate(1.9863, 2)" fill-rule="nonzero"/></svg>