<svg width="16px" height="16px" viewBox="0 0 16 16" version="1.1" xmlns:xlink="http://www.w3.org/1999/xlink" fill="currentColor"><g transform="translate(1, 2)" stroke="none" stroke-width="1" fill-rule="evenodd"><path d="M3.5026163 12.9875 10.497335 12.9875C11.1072137 12.9875 11.4734111 12.63572 11.5 12.0125L2.5 12.0125C2.5265281 12.63572 2.89268895 12.9875 3.5026163 12.9875ZM2.72541993 10.9875 11.2745206 10.9875C12.0199279 10.9875 12.4675024 10.63572 12.5 10.0125L1.5 10.0125C1.53242324 10.63572 1.97995316 10.9875 2.72541993 10.9875ZM11.9016151 0C13.2982574 0 14 .650547283 14 1.93911942L14 7.06088058C14 8.34946339 13.2982574 9 11.9016151 9L2.09831761 9C.701663916 9 0 8.3557086 0 7.06088058L0 1.93911942C0 .644291404.701663916 0 2.09831761 0L11.9016151 0ZM11.9509351 1 2.05583385 1C1.37901254 1 1 1.33838515 1 1.98380984L1 7.01619016C1 7.66161485 1.37901254 8 2.05583385 8L11.9509351 8C12.6141955 8 13 7.66161485 13 7.01619016L13 1.98380984C13 1.33838515 12.6141955 1 11.9509351 1Z" fill-rule="nonzero"/><rect x="4" y="4" width="6" height="1" rx="0.5"/></g></svg>