<svg width="16px" height="16px" viewBox="0 0 16 16" version="1.1" xmlns:xlink="http://www.w3.org/1999/xlink" fill="currentColor"><g transform="translate(1, 1)" stroke="none" stroke-width="1" fill-rule="evenodd"><path d="M11.9016151,4 C13.2982574,4 14,4.65054728 14,5.93911942 L14,11.0608806 C14,12.3494634 13.2982574,13 11.9016151,13 L2.09831761,13 C0.701663916,13 0,12.3557086 0,11.0608806 L0,5.93911942 C0,4.6442914 0.701663916,4 2.09831761,4 L11.9016151,4 Z M11.9509351,5 L2.05583385,5 C1.37901254,5 1,5.33838515 1,5.98380984 L1,11.0161902 C1,11.6616148 1.37901254,12 2.05583385,12 L11.9509351,12 C12.6141955,12 13,11.6616148 13,11.0161902 L13,5.98380984 C13,5.33838515 12.6141955,5 11.9509351,5 Z" fill-rule="nonzero"/><path d="M7,5.5 C7.27614237,5.5 7.5,5.72385763 7.5,6 L7.5,8 L9.5,8 C9.77614237,8 10,8.22385763 10,8.5 C10,8.77614237 9.77614237,9 9.5,9 L7.5,9 L7.5,11 C7.5,11.2761424 7.27614237,11.5 7,11.5 C6.72385763,11.5 6.5,11.2761424 6.5,11 L6.5,9 L4.5,9 C4.22385763,9 4,8.77614237 4,8.5 C4,8.22385763 4.22385763,8 4.5,8 L6.5,8 L6.5,6 C6.5,5.72385763 6.72385763,5.5 7,5.5 Z"/><path d="M11.2745801 2.0125 2.72547942 2.0125C1.98007215 2.0125 1.5324976 2.36428 1.5 2.9875L12.5 2.9875C12.4675768 2.36428 12.0200468 2.0125 11.2745801 2.0125ZM10.4973837.0125 3.50266498.0125C2.8927863.0125 2.52658895.36428 2.5.9875L11.5.9875C11.4734719.36428 11.107311.0125 10.4973837.0125Z" fill-rule="nonzero"/></g></svg>