<svg width="16px" height="16px" viewBox="0 0 16 16" version="1.1" xmlns:xlink="http://www.w3.org/1999/xlink" fill="currentColor"><path d="M0,10.1873406 C0,10.7794939 0.165003832,11.2296421 0.495011496,11.5377853 C0.82501916,11.8459284 1.3055614,12 1.9366382,12 L9.07418661,12 C9.70128437,12 10.179819,11.8459284 10.5097905,11.5377853 C10.839762,11.2296421 11.0047477,10.7794939 11.0047477,10.1873406 L11.0047477,7.90915673 C11.0047477,7.8551679 11.0242631,7.81784803 11.063294,7.79719713 C11.1023248,7.77654623 11.1539258,7.7876991 11.218097,7.83065573 C11.4236328,7.96586913 11.6469297,8.08267255 11.8879876,8.18106599 C12.1290455,8.27945942 12.3976311,8.32865614 12.6937445,8.32865614 C13.1040928,8.32865614 13.4846705,8.23252086 13.8354777,8.04025029 C14.1862849,7.84797973 14.4680738,7.57998345 14.6808443,7.23626146 C14.8936148,6.89253947 15,6.49117424 15,6.03216576 C15,5.57757016 14.8936148,5.17827346 14.6808443,4.83427567 C14.4680738,4.49027787 14.1862849,4.22131628 13.8354777,4.02739088 C13.4846705,3.83346549 13.1040928,3.73650279 12.6937445,3.73650279 C12.3976311,3.73650279 12.1290455,3.78556161 11.8879876,3.88367924 C11.6469297,3.98179687 11.4236328,4.10063435 11.218097,4.24019168 C11.1539258,4.28321727 11.1023248,4.29424947 11.063294,4.27328829 C11.0242631,4.2523271 11.0047477,4.21319727 11.0047477,4.15589878 L11.0047477,1.80769496 C11.0047477,1.21885127 10.839762,0.770357857 10.5097905,0.462214714 C10.179819,0.154071571 9.70128437,0 9.07418661,0 L1.9366382,0 C1.3055614,0 0.82501916,0.154071571 0.495011496,0.462214714 C0.165003832,0.770357857 0,1.21885127 0,1.80769496 L0,4.60084121 C0,4.84810039 0.0754210216,5.04085362 0.226263065,5.17910088 C0.377105108,5.31734813 0.560792373,5.38647176 0.77732486,5.38647176 C0.891414981,5.38647176 1.00926711,5.36149417 1.13088125,5.31153899 C1.25249538,5.26158381 1.37324136,5.18447907 1.49311919,5.08022478 C1.66089027,4.94066745 1.83576937,4.82870785 2.0177565,4.744346 C2.19974362,4.65998414 2.39542229,4.61780321 2.60479249,4.61780321 C2.99647538,4.61780321 3.33120364,4.7444839 3.60897727,4.99784527 C3.8867509,5.25120665 4.02563772,5.58746466 4.02563772,6.00661932 C4.02563772,6.42625664 3.8867509,6.76277322 3.60897727,7.01616907 C3.33120364,7.26956492 2.99647538,7.39626284 2.60479249,7.39626284 C2.39542229,7.39626284 2.19974362,7.35408191 2.0177565,7.26972006 C1.83576937,7.1853582 1.66089027,7.07339861 1.49311919,6.93384127 C1.37324136,6.82510515 1.25249538,6.74686272 1.13088125,6.69911398 C1.00926711,6.65136523 0.891414981,6.62749086 0.77732486,6.62749086 C0.560792373,6.62749086 0.377105108,6.69663173 0.226263065,6.83491347 C0.0754210216,6.9731952 0,7.16596566 0,7.41322485 L0,10.1873406 Z M1.0244751,10.0772419 L1.0244751,7.91526938 C1.0244751,7.77958031 1.05549629,7.71922885 1.11753867,7.734215 C1.17958106,7.74920115 1.24414925,7.77781723 1.31124325,7.82006326 C1.50192396,7.938325 1.70868448,8.04204136 1.93152478,8.13121234 C2.15436508,8.22038332 2.40570077,8.26496881 2.68553184,8.26496881 C3.08909192,8.26496881 3.46351628,8.17042384 3.80880491,7.98133389 C4.15409354,7.79224394 4.43122093,7.52773162 4.64018708,7.18779692 C4.84915322,6.84786223 4.9536363,6.45408588 4.9536363,6.0064679 C4.9536363,5.55939241 4.84915322,5.16588731 4.64018708,4.82595261 C4.43122093,4.48601791 4.15409354,4.22150559 3.80880491,4.03241564 C3.46351628,3.84332569 3.08909192,3.74878072 2.68553184,3.74878072 C2.40570077,3.74878072 2.15436508,3.79336621 1.93152478,3.88253719 C1.70868448,3.97170817 1.50192396,4.07539063 1.31124325,4.19358456 C1.24414925,4.2358984 1.17958106,4.26453143 1.11753867,4.27948368 C1.05549629,4.29443592 1.0244751,4.23216881 1.0244751,4.09268234 L1.0244751,1.92257259 C1.0244751,1.62637575 1.11111743,1.39814211 1.28440209,1.23787168 C1.45768675,1.07760126 1.69484589,0.997466042 1.99587952,0.997466042 L9.0264652,0.997466042 C9.32692963,0.997466042 9.56380417,1.07760126 9.73708883,1.23787168 C9.91037349,1.39814211 9.99701582,1.62637575 9.99701582,1.92257259 L9.99701582,4.62150355 C9.99701582,4.86840207 10.0700508,5.06349325 10.2161208,5.20677712 C10.3621907,5.35006098 10.5419856,5.42170292 10.7555053,5.42170292 C10.8716925,5.42170292 10.9885911,5.39808787 11.1062013,5.35085776 C11.2238115,5.30362765 11.3435561,5.22874776 11.4654352,5.12621809 C11.6264466,4.98462949 11.7974367,4.873437 11.9784055,4.79264064 C12.1593743,4.71184427 12.4551748,4.67144608 12.6605835,4.67144608 C13.0462851,4.67144608 13.3813602,4.77090733 13.6525466,5.0200775 C13.923733,5.26924766 14.0593262,5.59804447 14.0593262,6.0064679 C14.0593262,6.41916341 13.923733,6.7501132 13.6525466,6.99931727 C13.3813602,7.24852134 13.0462851,7.39824722 12.6605835,7.39824722 C12.4551748,7.39824722 12.1593743,7.35676407 11.9784055,7.27379776 C11.7974367,7.19083145 11.6264466,7.08072394 11.4654352,6.94347522 C11.3435561,6.84033524 11.2238115,6.76433648 11.1062013,6.71547892 C10.9885911,6.66662136 10.8716925,6.64219258 10.7555053,6.64219258 C10.5419856,6.64219258 10.3621907,6.71478386 10.2161208,6.85996642 C10.0700508,7.00514899 9.99701582,7.19932473 9.99701582,7.44249366 L9.99701582,10.0772419 C9.99701582,10.3701838 9.91037349,10.59679 9.73708883,10.7570604 C9.56380417,10.9173308 9.32692963,10.997466 9.0264652,10.997466 L1.99587952,10.997466 C1.69484589,10.997466 1.45768675,10.9173308 1.28440209,10.7570604 C1.11111743,10.59679 1.0244751,10.3701838 1.0244751,10.0772419 Z" transform="translate(1, 2)" fill-rule="nonzero"/></svg>