<svg width="16px" height="16px" viewBox="0 0 16 16" version="1.1" xmlns:xlink="http://www.w3.org/1999/xlink" fill="currentColor"><path d="M8.06325011,1 C8.65680979,1 9.21970502,1.26364602 9.59969267,1.7196312 L13.5364426,6.44373107 C13.8359676,6.80316107 14,7.25622686 14,7.72409987 L14,13 C14,14.1045695 13.1045695,15 12,15 L5,15 C3.8954305,15 3,14.1045695 3,13 L3,3 C3,1.8954305 3.8954305,1 5,1 L8.06325011,1 Z M8,2 L5,2 C4.44771525,2 4,2.44771525 4,3 L4,13 C4,13.5522847 4.44771525,14 5,14 L12,14 C12.5522847,14 13,13.5522847 13,13 L13,8 L10,8 C8.8954305,8 8,7.1045695 8,6 L8,2 Z M12.699,7 L9,2.562 L9,6 C9,6.55228475 9.44771525,7 10,7 L12.699,7 Z" fill-rule="nonzero"/></svg>