<svg width="16px" height="16px" viewBox="0 0 16 16" version="1.1" xmlns:xlink="http://www.w3.org/1999/xlink" fill="currentColor"><g stroke="none" stroke-width="1" fill-rule="evenodd"><path d="M5,2 C7,2 6.5,3 7.73239368,2.99992752 L8.77029754,2.99914441 C8.56124726,3.30795573 8.38939549,3.6434639 8.26147244,3.9989968 L8.15562632,3.99992085 C6.73929228,3.99996306 6.36278084,3.71553832 6.09226069,3.45006603 L5.99396008,3.35199493 C5.8,3.16 5.6,3 5,3 L3,3 C2.44771525,3 2,3.44771525 2,4 L2,6 L8.02820406,6.00063689 C8.06736643,6.34718791 8.14654411,6.68222496 8.26091303,7.00102304 L2,7 L2,12 C2,12.5522847 2.44771525,13 3,13 L13,13 C13.5522847,13 14,12.5522847 14,12 L14.0011896,9.73610992 C14.3561509,9.60669925 14.6918356,9.43305502 15.0011756,9.22206741 L15,12 C15,13.1045695 14.1045695,14 13,14 L3,14 C1.8954305,14 1,13.1045695 1,12 L1,4 C1,2.8954305 1.8954305,2 3,2 L5,2 Z" fill-rule="nonzero"/><path d="M15.9992417,5.49895436 C15.9992417,7.4096027 14.3988388,9.001011 12.5030895,9.001011 C10.5862649,9.001011 9,7.42368531 9,5.49895436 C9,3.58127204 10.5862649,2 12.5030895,2 C14.419914,2 15.9992417,3.58127204 15.9992417,5.49895436 Z M12.0139677,3.78253175 L12.0139677,5.01073765 L10.7857481,5.01073765 C10.492158,5.01073765 10.2966264,5.20805539 10.2966264,5.5005077 C10.2966264,5.79296 10.4952315,5.9902631 10.7857481,5.9902631 L12.0139677,5.9902631 L12.0139677,7.22309969 C12.0139677,7.51401332 12.2039378,7.71133106 12.5030895,7.71133106 C12.795216,7.71133106 12.9922112,7.51401332 12.9922112,7.22309969 L12.9922112,5.9902631 L14.2220407,5.9902631 C14.5125574,5.9902631 14.7025275,5.79296 14.7025275,5.5005077 C14.7025275,5.20805539 14.5125574,5.01073765 14.2220407,5.01073765 L12.9922112,5.01073765 L12.9922112,3.78253175 C12.9922112,3.48854076 12.795216,3.29277635 12.5030895,3.29277635 C12.2039378,3.29277635 12.0139677,3.49163278 12.0139677,3.78253175 Z" fill-rule="nonzero"/></g></svg>