<svg width="16px" height="16px" viewBox="0 0 16 16" version="1.1" xmlns:xlink="http://www.w3.org/1999/xlink" fill="currentColor"><g stroke="none" stroke-width="1" fill-rule="evenodd"><path d="M8.06325011,1 C8.65680979,1 9.21970502,1.26364602 9.59969267,1.7196312 L13.5364426,6.44373107 C13.8359676,6.80316107 14,7.25622686 14,7.72409987 L14,12 C14,13.1045695 13.1045695,14 12,14 L7.73393267,14.0008716 C7.84998911,13.681759 7.93050707,13.346755 7.9704116,13.0008068 L12,13 C12.5522847,13 13,12.5522847 13,12 L13,8 L10,8 C8.8954305,8 8,7.1045695 8,6 L8,2 L5,2 C4.44771525,2 4,2.44771525 4,3 L4.00004762,8.02766873 C3.83706369,8.00939038 3.67157435,8 3.50408078,8 C3.33356443,8 3.16508259,8.00973238 2.99917,8.02866703 L3,3 C3,1.8954305 3.8954305,1 5,1 L8.06325011,1 Z M9,2.562 L9,6 C9,6.55228475 9.44771525,7 10,7 L12.699,7 L9,2.562 Z" fill-rule="nonzero"/><path d="M6.99924166,12.4989544 C6.99924166,14.4096027 5.39883877,16.001011 3.50308947,16.001011 C1.5862649,16.001011 1.687539e-14,14.4236853 1.687539e-14,12.4989544 C1.687539e-14,10.581272 1.5862649,9 3.50308947,9 C5.41991403,9 6.99924166,10.581272 6.99924166,12.4989544 Z M3.01396771,10.7825318 L3.01396771,12.0107376 L1.78574813,12.0107376 C1.49215799,12.0107376 1.29662637,12.2080554 1.29662637,12.5005077 C1.29662637,12.79296 1.49523147,12.9902631 1.78574813,12.9902631 L3.01396771,12.9902631 L3.01396771,14.2230997 C3.01396771,14.5140133 3.2039378,14.7113311 3.50308947,14.7113311 C3.79521605,14.7113311 3.99221123,14.5140133 3.99221123,14.2230997 L3.99221123,12.9902631 L5.22204072,12.9902631 C5.51255738,12.9902631 5.70252747,12.79296 5.70252747,12.5005077 C5.70252747,12.2080554 5.51255738,12.0107376 5.22204072,12.0107376 L3.99221123,12.0107376 L3.99221123,10.7825318 C3.99221123,10.4885408 3.79521605,10.2927764 3.50308947,10.2927764 C3.2039378,10.2927764 3.01396771,10.4916328 3.01396771,10.7825318 Z" fill-rule="nonzero"/></g></svg>