<svg width="16px" height="16px" viewBox="0 0 16 16" version="1.1" xmlns:xlink="http://www.w3.org/1999/xlink" fill="currentColor"><g transform="translate(1, 1)" fill-rule="nonzero" stroke="none" stroke-width="1"><path d="M12.2707766,0 C12.8471844,0 13.2794902,0.143481566 13.5676941,0.430444698 C13.855898,0.71740783 14,1.14405169 14,1.71037628 L14,8.28962372 C14,8.85594831 13.855898,9.28259217 13.5676941,9.5695553 C13.2794902,9.85651843 12.8471844,10 12.2707766,10 L10.999,10 L10.999,9 L12.1941214,9 C12.4085179,9 12.5821896,8.95288575 12.7151364,8.85865724 L12.7900175,8.79646643 C12.9300058,8.66077739 13,8.46101296 13,8.19717314 L13,1.80848057 C13,1.54087161 12.9300058,1.33922261 12.7900175,1.20353357 C12.6500292,1.06784452 12.4513972,1 12.1941214,1 L4.79452821,1 C4.53725241,1 4.34051209,1.06784452 4.20430725,1.20353357 C4.06810242,1.33922261 4,1.54087161 4,1.80848057 L3.999,4 L2.999,4 L3,1.71037628 C3,1.20697665 3.11535647,0.81394203 3.3460694,0.531272435 L3.43799409,0.430444698 C3.72999015,0.143481566 4.16039993,0 4.72922342,0 Z"/><path d="M1.72922342,13 L9.27077658,13 C9.84718439,13 10.2794902,12.8565184 10.5676941,12.5695553 C10.855898,12.2825922 11,11.8559483 11,11.2896237 L11,4.71037628 C11,4.14405169 10.855898,3.71740783 10.5676941,3.4304447 C10.2794902,3.14348157 9.84718439,3 9.27077658,3 L1.72922342,3 C1.16039993,3 0.729990151,3.14348157 0.43799409,3.4304447 C0.14599803,3.71740783 0,4.14405169 0,4.71037628 L0,11.2896237 C0,11.8559483 0.14599803,12.2825922 0.43799409,12.5695553 C0.729990151,12.8565184 1.16039993,13 1.72922342,13 Z M1.79452821,12 C1.53725241,12 1.34051209,11.9321555 1.20430725,11.7964664 C1.06810242,11.6607774 1,11.461013 1,11.1971731 L1,4.80848057 C1,4.54087161 1.06810242,4.33922261 1.20430725,4.20353357 C1.34051209,4.06784452 1.53725241,4 1.79452821,4 L9.19412138,4 C9.45139719,4 9.65002924,4.06784452 9.79001754,4.20353357 C9.93000585,4.33922261 10,4.54087161 10,4.80848057 L10,11.1971731 C10,11.461013 9.93000585,11.6607774 9.79001754,11.7964664 C9.65002924,11.9321555 9.45139719,12 9.19412138,12 L1.79452821,12 Z M5.50756657,5.2 C5.37559083,5.2 5.2626116,5.24609681 5.16862888,5.33829043 C5.07464616,5.43048405 5.0276548,5.53871135 5.0276548,5.66297232 L5.0276548,8.46676057 L5.06964708,9.36865469 L4.61972979,8.911695 L3.91785883,8.1901797 C3.82587574,8.09798608 3.71589596,8.05188927 3.58791949,8.05188927 C3.46394228,8.05188927 3.3599614,8.09097135 3.27597684,8.16913551 C3.19199228,8.24729966 3.15,8.34851223 3.15,8.4727732 C3.15,8.54091631 3.16299761,8.60304679 3.18899283,8.65916465 C3.21498805,8.71528251 3.25398088,8.76338353 3.30597133,8.80346771 L5.15963053,10.5411171 C5.27560921,10.6493444 5.39158789,10.703458 5.50756657,10.703458 C5.61954598,10.703458 5.73552466,10.6493444 5.8555026,10.5411171 L7.70916181,8.80346771 C7.75715299,8.76338353 7.79414619,8.71528251 7.82014141,8.65916465 C7.84613663,8.60304679 7.85913424,8.54091631 7.85913424,8.4727732 C7.85913424,8.34851223 7.81814177,8.24729966 7.73615685,8.16913551 C7.65417192,8.09097135 7.54719159,8.05188927 7.41521585,8.05188927 C7.29523791,8.05188927 7.18925739,8.09798608 7.0972743,8.1901797 L6.38940444,8.911695 L5.95148495,9.36865469 L5.98747834,8.46676057 L5.98747834,5.66297232 C5.98747834,5.53871135 5.93948716,5.43048405 5.84350481,5.33829043 C5.74752245,5.24609681 5.63554304,5.2 5.50756657,5.2 Z"/></g></svg>