<svg width="16px" height="16px" viewBox="0 0 16 16" version="1.1" xmlns:xlink="http://www.w3.org/1999/xlink" fill="currentColor"><path d="M0,6.03660078 C0,6.86778559 0.156063057,7.64841683 0.468189171,8.37849451 C0.780315286,9.1085722 1.21360144,9.75083413 1.76804762,10.3052803 C2.32249381,10.8597265 2.96357616,11.2930127 3.69129468,11.6051388 C4.41901319,11.9172649 5.19846486,12.0733279 6.02964966,12.0733279 C6.70032691,12.0733279 7.33559561,11.9703883 7.93545574,11.7645089 C8.53531588,11.5586295 9.08502266,11.271717 9.58457611,10.9037713 L13.4370103,14.7663162 C13.5166321,14.845264 13.6087028,14.9039482 13.7132223,14.9423689 C13.8177418,14.9807896 13.9253155,15 14.0359436,15 C14.1977992,15 14.340276,14.9634119 14.4633739,14.8902356 C14.5864719,14.8170593 14.6829238,14.7175741 14.7527299,14.59178 C14.8225359,14.4659859 14.857439,14.3235091 14.857439,14.1643496 C14.857439,14.0543956 14.837386,13.949497 14.7972802,13.8496537 C14.7571744,13.7498104 14.6993327,13.659783 14.6237551,13.5795713 L10.7915424,9.73206612 C11.1911683,9.22316027 11.5035472,8.65426419 11.728679,8.02537789 C11.9538109,7.39649158 12.0663768,6.73356588 12.0663768,6.03660078 C12.0663768,5.20541597 11.9103138,4.42480579 11.5981877,3.69477023 C11.2860615,2.96473468 10.8529439,2.32365233 10.2988347,1.77152318 C9.74472558,1.21939403 9.10381174,0.786107881 8.37609322,0.471664729 C7.6483747,0.157221576 6.86622685,0 6.02964966,0 C5.19846486,0 4.41901319,0.157221576 3.69129468,0.471664729 C2.96357616,0.786107881 2.32249381,1.21939403 1.76804762,1.77152318 C1.21360144,2.32365233 0.780315286,2.96473468 0.468189171,3.69477023 C0.156063057,4.42480579 0,5.20541597 0,6.03660078 Z M1.17903544,6.03660078 C1.17903544,5.36600779 1.30455572,4.73769021 1.55559628,4.15164805 C1.80663684,3.56560588 2.1555828,3.05019126 2.60243415,2.60540418 C3.04928551,2.16061709 3.5647212,1.8126822 4.14874122,1.56159951 C4.73276124,1.31051683 5.35973072,1.18497548 6.02964966,1.18497548 C6.70024266,1.18497548 7.32856023,1.31051683 7.9146024,1.56159951 C8.50064456,1.8126822 9.01608025,2.16061709 9.46090946,2.60540418 C9.90573867,3.05019126 10.2536736,3.56560588 10.5047141,4.15164805 C10.7557547,4.73769021 10.881275,5.36600779 10.881275,6.03660078 C10.881275,6.70660398 10.7557547,7.33477411 10.5047141,7.92111117 C10.2536736,8.50744822 9.90573867,9.02286285 9.46090946,9.46735504 C9.01608025,9.91184723 8.50064456,10.2598032 7.9146024,10.5112229 C7.32856023,10.7626426 6.70024266,10.8883525 6.02964966,10.8883525 C5.35973072,10.8883525 4.73276124,10.7626426 4.14874122,10.5112229 C3.5647212,10.2598032 3.04928551,9.91184723 2.60243415,9.46735504 C2.1555828,9.02286285 1.80663684,8.50744822 1.55559628,7.92111117 C1.30455572,7.33477411 1.17903544,6.70660398 1.17903544,6.03660078 Z" transform="translate(1, 0)" fill-rule="nonzero"/></svg>